<svg width="76" height="76" viewBox="0 0 76 76" fill="none" xmlns="http://www.w3.org/2000/svg">
<path d="M68.4693 45.08C72.4624 28.1692 61.9906 11.2233 45.0799 7.23024C28.1692 3.23714 11.2232 13.7089 7.23015 30.6197C3.23705 47.5304 13.7089 64.4763 30.6196 68.4694C47.5303 72.4625 64.4762 61.9907 68.4693 45.08Z" fill="#76C6C9"/>
<path d="M38.3274 8.49414L38.6192 11.3029C38.9077 14.0805 42.7862 14.4883 43.6466 11.8313L44.5161 9.1451L44.2178 11.9532C43.9228 14.7302 47.6321 15.9355 49.0255 13.5151L50.4344 11.0682L49.5591 13.7524C48.6929 16.4075 52.0709 18.3571 53.9369 16.2798L55.8236 14.179L54.4089 16.6228C53.0097 19.0392 55.9079 21.6489 58.1655 20.0053L60.4478 18.3429L58.5559 20.439C56.6853 22.5119 58.9773 25.6675 61.5273 24.5283L64.1053 23.3768L61.8191 25.034C59.5582 26.6731 61.1441 30.2359 63.8751 29.6517L66.6365 29.0617L64.056 30.2074C61.5034 31.3401 62.3145 35.1551 65.107 35.1519L67.9306 35.1486L65.1679 35.7328C62.4357 36.3105 62.4357 40.2104 65.1679 40.7875L67.9306 41.3717L65.107 41.3684C62.3145 41.3652 61.504 45.1802 64.056 46.3129L66.6365 47.4586L63.8751 46.8685C61.1441 46.285 59.5582 49.8478 61.8191 51.4862L64.1053 53.1435L61.5273 51.992C58.9773 50.8534 56.6853 54.0084 58.5559 56.0812L60.4478 58.1774L58.1655 56.515C55.9086 54.8714 53.0104 57.4804 54.4089 59.8975L55.8236 62.3412L53.9369 60.2405C52.0709 58.1631 48.6935 60.1134 49.5591 62.7679L50.4344 65.4521L49.0255 63.0052C47.6321 60.5855 43.9228 61.7901 44.2178 64.5671L44.5161 67.3752L43.6466 64.689C42.7869 62.032 38.9083 62.4398 38.6192 65.2174L38.3274 68.0261L38.0356 65.2174C37.7471 62.4398 33.8685 62.032 33.0081 64.689L32.1387 67.3752L32.4369 64.5671C32.732 61.7901 29.0226 60.5848 27.6293 63.0052L26.2204 65.4521L27.0957 62.7679C27.9619 60.1128 24.5839 58.1631 22.7179 60.2405L20.8311 62.3412L22.2459 59.8975C23.645 57.4811 20.7468 54.8714 18.4892 56.515L16.2069 58.1774L18.0989 56.0812C19.9694 54.0084 17.6774 50.8528 15.1274 51.992L12.5495 53.1435L14.8357 51.4862C17.0965 49.8472 15.5106 46.2844 12.7797 46.8685L10.0183 47.4586L12.5988 46.3129C15.1514 45.1802 14.3403 41.3652 11.5478 41.3684L8.72412 41.3717L11.4868 40.7875C14.219 40.2098 14.219 36.3098 11.4868 35.7328L8.72412 35.1486L11.5478 35.1519C14.3403 35.1551 15.1508 31.3401 12.5988 30.2074L10.0183 29.0617L12.7797 29.6517C15.5106 30.2353 17.0965 26.6725 14.8357 25.034L12.5495 23.3768L15.1274 24.5283C17.6774 25.6669 19.9694 22.5119 18.0989 20.439L16.2069 18.3429L18.4892 20.0053C20.7462 21.6489 23.645 19.0399 22.2459 16.6228L20.8311 14.179L22.7179 16.2798C24.5839 18.3571 27.9612 16.4068 27.0957 13.7524L26.2204 11.0682L27.6293 13.5151C29.0226 15.9348 32.732 14.7302 32.4369 11.9532L32.1387 9.1451L33.0081 11.8313C33.8679 14.4883 37.7464 14.0805 38.0356 11.3029L38.3274 8.49414Z" fill="#FAE117"/>
<path d="M38.3273 15.5432L38.5503 17.6867C38.7708 19.8062 41.7306 20.1175 42.3867 18.09L43.05 16.0399L42.8224 18.1827C42.5975 20.3022 45.4283 21.2216 46.4916 19.3751L47.5672 17.5078L46.8988 19.5566C46.2381 21.5828 48.8153 23.0708 50.2398 21.4855L51.6798 19.8828L50.6003 21.7475C49.5324 23.5921 51.7447 25.5832 53.4674 24.3286L55.2095 23.0598L53.7656 24.6593C52.3379 26.2413 54.0872 28.6494 56.033 27.7805L58.0008 26.902L56.256 28.167C54.5307 29.4177 55.7412 32.1369 57.8251 31.6915L59.9323 31.2409L57.9625 32.1149C56.0148 32.9798 56.6334 35.891 58.7646 35.8884L60.9197 35.8858L58.8112 36.3312C56.7261 36.7721 56.7261 39.7482 58.8112 40.189L60.9197 40.6345L58.7646 40.6319C56.6334 40.6293 56.0148 43.5405 57.9625 44.4054L59.9323 45.2794L57.8251 44.8288C55.7412 44.3833 54.5307 47.1026 56.256 48.3533L58.0008 49.6183L56.033 48.7397C54.0872 47.8709 52.3379 50.279 53.7656 51.861L55.2095 53.4605L53.4674 52.1917C51.7447 50.9371 49.5331 52.9289 50.6003 54.7728L51.6798 56.6375L50.2398 55.0348C48.8153 53.4495 46.2381 54.9375 46.8988 56.9636L47.5672 59.0125L46.4916 57.1452C45.4283 55.2987 42.5975 56.218 42.8224 58.3376L43.05 60.4804L42.3867 58.4303C41.7306 56.4028 38.7701 56.714 38.5503 58.8335L38.3273 60.9771L38.1043 58.8335C37.8838 56.714 34.924 56.4028 34.2679 58.4303L33.6046 60.4804L33.8321 58.3376C34.0571 56.2187 31.2264 55.2987 30.163 57.1452L29.0874 59.0125L29.7559 56.9636C30.4165 54.9375 27.8393 53.4495 26.4148 55.0348L24.9748 56.6375L26.0543 54.7728C27.1222 52.9282 24.9099 50.9371 23.1872 52.1917L21.4451 53.4605L22.889 51.861C24.3167 50.279 22.5674 47.8709 20.6216 48.7397L18.6538 49.6183L20.3986 48.3533C22.1239 47.1026 20.9134 44.3833 18.8295 44.8288L16.7223 45.2794L18.6921 44.4054C20.6398 43.5405 20.0212 40.6293 17.89 40.6319L15.7349 40.6345L17.8434 40.189C19.9285 39.7482 19.9285 36.7721 17.8434 36.3312L15.7349 35.8858L17.89 35.8884C20.0212 35.891 20.6398 32.9798 18.6921 32.1149L16.7223 31.2409L18.8295 31.6915C20.9134 32.1369 22.1239 29.4177 20.3986 28.167L18.6538 26.902L20.6216 27.7805C22.5674 28.6494 24.3167 26.242 22.889 24.6593L21.4451 23.0598L23.1872 24.3286C24.9099 25.5832 27.1215 23.5914 26.0543 21.7475L24.9748 19.8828L26.4148 21.4855C27.8393 23.0708 30.4165 21.5828 29.7559 19.5566L29.0874 17.5078L30.163 19.3751C31.2264 21.2216 34.0571 20.3022 33.8321 18.1827L33.6046 16.0399L34.2679 18.09C34.924 20.1175 37.8845 19.8062 38.1043 17.6867L38.3273 15.5432Z" fill="#FDF8C0"/>
<path d="M54.2102 51.5239C47.53 53.0502 37.0913 55.4686 33.2173 56.5423C32.3329 56.788 31.5717 56.9443 30.9156 57.0331C30.5972 57.0759 30.3048 57.1031 30.0351 57.1168C29.0191 57.1699 28.3266 57.0318 27.8559 56.8321L21.8034 24.046C21.8027 24.0415 21.8027 24.0402 21.8027 24.0402C21.8027 24.0402 44.7926 17.7426 46.2437 18.5926C46.2968 18.6244 46.3571 18.6976 46.4252 18.8104C46.5828 19.0769 46.7773 19.5619 47.001 20.2252C47.2091 20.8457 47.4432 21.6224 47.6954 22.5217C48.0474 23.7776 48.4352 25.2714 48.843 26.9144C49.4985 29.5591 50.2026 32.587 50.8808 35.6168C52.3669 42.2516 53.7336 48.8902 54.2102 51.5239Z" fill="#EFA710"/>
<path d="M21.918 24.4124C21.918 24.4124 46.355 18.7326 47.1415 18.6743C47.928 18.6159 49.1222 22.1988 49.1222 22.1988C49.1222 22.1988 26.345 27.3832 24.3934 27.3248C22.4418 27.2665 21.918 24.4124 21.918 24.4124Z" fill="white"/>
<path d="M56.2393 51.061C55.6162 51.2036 54.9348 51.3579 54.2093 51.5239C47.5291 53.0502 37.0904 55.4686 33.2164 56.5423C32.332 56.788 31.5708 56.9443 30.9146 57.0331C30.5963 57.0759 30.3039 57.1031 30.0342 57.1168L24.5334 27.3229L24.2261 25.6566C24.2261 25.6566 24.5217 25.5755 25.0476 25.4329C25.0476 25.4329 25.0482 25.4329 25.0495 25.4329C28.5377 24.4889 42.1392 20.856 47.0001 20.2252C47.5564 20.1519 47.9985 20.1195 48.2987 20.1344C48.4712 20.1428 48.597 20.1668 48.6683 20.2096C49.8587 20.9073 54.5847 42.6627 56.2393 51.061Z" fill="#FF2B07"/>
<path d="M30.9148 57.0337C30.5964 57.0765 30.304 57.1037 30.0343 57.1174C29.0183 57.1705 28.3258 57.0324 27.8551 56.8327C27.1471 56.5319 26.9402 56.091 26.8877 55.9386C26.8871 55.9367 26.8858 55.9354 26.8858 55.9334C25.1138 49.4361 21.859 24.4862 21.8019 24.0466C21.8013 24.0421 21.8013 24.0408 21.8013 24.0408C21.8013 24.0408 21.916 24.1769 22.1235 24.3643C22.6383 24.8311 23.7243 25.6163 25.047 25.4341C25.047 25.4341 25.0477 25.4341 25.049 25.4341L25.3809 27.2236L30.9148 57.0337Z" fill="#A32D35"/>
<path d="M29.2629 28.4315C29.2629 28.4315 45.5739 24.2956 47.2052 24.47C48.8365 24.645 51.1084 34.3148 50.875 35.6543C50.6416 36.9939 32.3504 41.406 31.7098 40.947C31.0686 40.4879 27.7483 29.1304 29.2629 28.4315Z" fill="#F8E922"/>
</svg>
