<svg width="79" height="79" viewBox="0 0 79 79" fill="none" xmlns="http://www.w3.org/2000/svg">
<path d="M70.9876 46.9185C75.4127 29.7458 64.9025 12.2821 47.5124 7.91228C30.1223 3.54245 12.4376 13.9213 8.01242 31.094C3.58728 48.2667 14.0975 65.7304 31.4876 70.1003C48.8777 74.4701 66.5624 64.0913 70.9876 46.9185Z" fill="#FAE645"/>
<path d="M39.5085 10.8855L43.1557 17.1709L48.5919 12.3064L50.0931 19.3971L56.7854 16.429L55.9947 23.6315L63.2883 22.8506L60.2826 29.4586L67.4631 30.9417L62.5364 36.3093L68.902 39.9115L62.5364 43.5131L67.4631 48.8807L60.2826 50.3638L63.2883 56.9725L55.9947 56.1916L56.7854 63.3934L50.0931 60.4253L48.5919 67.5167L43.1557 62.6516L39.5085 68.9369L35.8614 62.6516L30.4258 67.5167L28.9239 60.4253L22.2316 63.3934L23.0224 56.1916L15.7287 56.9725L18.7351 50.3638L11.554 48.8807L16.4807 43.5131L10.1157 39.9115L16.4807 36.3093L11.554 30.9417L18.7351 29.4586L15.7287 22.8506L23.0224 23.6315L22.2316 16.429L28.9239 19.3971L30.4258 12.3064L35.8614 17.1709L39.5085 10.8855Z" fill="#FF8700"/>
<path d="M39.5085 15.5779L42.5665 20.8477L47.1229 16.7694L48.3823 22.7136L53.992 20.2255L53.3291 26.2629L59.4436 25.6083L56.924 31.1485L62.9435 32.3916L58.8136 36.8917L64.1494 39.9114L58.8136 42.9304L62.9435 47.4306L56.924 48.6736L59.4436 54.2138L53.3291 53.5592L53.992 59.5967L48.3823 57.1086L47.1229 63.0534L42.5665 58.9745L39.5085 64.2442L36.4513 58.9745L31.8942 63.0534L30.6354 57.1086L25.0251 59.5967L25.6879 53.5592L19.5734 54.2138L22.0937 48.6736L16.0736 47.4306L20.2035 42.9304L14.8677 39.9114L20.2035 36.8917L16.0736 32.3916L22.0937 31.1485L19.5734 25.6083L25.6879 26.2629L25.0251 20.2255L30.6354 22.7136L31.8942 16.7694L36.4513 20.8477L39.5085 15.5779Z" fill="#FF2B07"/>
<path d="M23.6709 33.5392L25.4131 48.397C25.4131 48.397 38.8748 53.7144 53.9207 48.397L55.3463 33.5392C55.3463 33.5392 38.8748 29.6289 23.6709 33.5392Z" fill="#091627"/>
<path d="M23.6709 33.5392L24.5279 40.8488C31.6977 41.6673 44.763 43.606 54.0004 47.56L55.3456 33.5392C55.3456 33.5392 38.8748 29.6289 23.6709 33.5392Z" fill="#0F1119"/>
<path d="M39.5956 24.2461L15.1978 33.5393L39.5956 42.8318L63.8193 33.1948L39.5956 24.2461Z" fill="#091627"/>
<path d="M39.4692 32.9136C39.4692 32.9136 45.7598 35.8308 59.8771 34.763L59.4244 33.2263C59.4244 33.2263 45.9627 34.7901 39.4692 32.9136Z" fill="#0F1119"/>
<path d="M59.1073 33.5391C59.1073 33.5391 58.4739 44.3305 61.1663 50.1167L62.5918 49.4912C62.5918 49.4912 59.5827 43.3916 59.8994 32.9136L59.1073 33.5391Z" fill="#F79F1B"/>
<path d="M59.1077 33.5392C59.1077 33.5392 48.6551 34.7902 39.4692 33.5392V33.0698C39.4692 33.0698 46.5961 34.3208 59.8998 32.9131C59.8998 32.9131 60.0579 33.6953 59.1077 33.5392Z" fill="#F79F1B"/>
<path d="M59.8998 46.3632L61.3528 45.983C61.3528 45.983 62.4335 45.7377 62.5922 46.5199C62.7508 47.3021 62.0009 48.0327 62.0009 48.0327L60.4763 48.3137C60.4763 48.3137 59.2664 48.0836 59.1077 47.4581C58.949 46.8326 59.8998 46.3632 59.8998 46.3632Z" fill="#2DABAC"/>
<path d="M38.6875 24.5918L17.6134 33.5392L29.9061 39.1409L15.2378 33.5392L38.6875 24.5918Z" fill="#67737D"/>
</svg>
