<svg width="82" height="88" viewBox="0 0 82 88" fill="none" xmlns="http://www.w3.org/2000/svg">
<g filter="url(#filter0_d_2383_2552)">
<rect x="4" y="4" width="74" height="80" rx="8" fill="#DC624B"/>
<rect x="6" y="6" width="70" height="76" rx="6" stroke="white" stroke-width="4"/>
</g>
<path d="M41.5 75C58.3447 75 72 61.3447 72 44.5C72 27.6553 58.3447 14 41.5 14C24.6553 14 11 27.6553 11 44.5C11 61.3447 24.6553 75 41.5 75Z" fill="#DC624B"/>
<path d="M41.5 69.875C55.5142 69.875 66.8749 58.5142 66.8749 44.5C66.8749 30.4858 55.5142 19.125 41.5 19.125C27.4858 19.125 16.125 30.4858 16.125 44.5C16.125 58.5142 27.4858 69.875 41.5 69.875Z" fill="#FF8700"/>
<path d="M55.4465 32.2681C55.4465 32.2681 45.6999 44.4666 45.9136 44.3245C46.1273 44.1818 49.0456 46.1039 49.0456 46.1039L64.4395 38.8016L55.4465 32.2681Z" fill="#FAE62A"/>
<path d="M61.0044 28.2305L62.7221 31.71L66.5625 32.2681L63.7831 34.9771L64.4393 38.8023L61.0044 36.9959L57.5695 38.8023L58.2256 34.9771L55.4463 32.2681L59.2866 31.71L61.0044 28.2305Z" fill="#FDF8C0"/>
<path d="M38.5819 36.5657L34.4531 21.7594L47.8289 21.6067L42.9948 37.0641L38.5819 36.5657Z" fill="#FAE62A"/>
<path d="M41.0734 16.6982L43.1608 20.9282L47.8289 21.6064L44.4512 24.8993L45.2481 29.5485L41.0734 27.3531L36.8981 29.5485L37.6951 24.8993L34.3174 21.6064L38.9855 20.9282L41.0734 16.6982Z" fill="#FDF8C0"/>
<path d="M20.3282 30.1118C20.3282 30.1118 37.6567 39.6265 37.443 39.6265C37.2293 39.6265 37.0156 42.8295 37.0156 42.8295L17.4941 38.8327L20.3282 30.1118Z" fill="#FAE62A"/>
<path d="M20.3278 30.1118L21.7445 32.9829L24.9129 33.443L22.62 35.6781L23.1612 38.8333L20.3278 37.3437L17.4938 38.8333L18.0349 35.6781L15.7427 33.443L18.9111 32.9829L20.3278 30.1118Z" fill="#FDF8C0"/>
<path d="M39.4272 59.938L41.6428 50.5176L47.2663 50.2681L54.7351 59.938H39.4272Z" fill="#FAE62A"/>
<path d="M29.702 65.283L37.8584 50.896L26.2671 54.7105L29.702 65.283Z" fill="#FAE62A"/>
<path d="M62.1038 57.2391L53.6909 50.8563L55.7368 48.8469L64.7059 49.2297L62.1038 57.2391Z" fill="#FAE62A"/>
<path d="M64.7061 49.2297L66.0072 51.8658L68.9173 52.2888L66.8117 54.3409L67.3089 57.2391L64.7061 55.8708L62.104 57.2391L62.6012 54.3409L60.4956 52.2888L63.4051 51.8658L64.7061 49.2297Z" fill="#FDF8C0"/>
<path d="M26.2671 54.7104L27.9842 58.1906L31.8245 58.7488L29.0458 61.4577L29.702 65.2829L26.2671 63.4765L22.8315 65.2829L23.4877 61.4577L20.709 58.7488L24.5493 58.1906L26.2671 54.7104Z" fill="#FDF8C0"/>
<path d="M47.0808 54.3772L49.446 59.1691L54.7351 59.9378L50.908 63.6681L51.8112 68.9352L47.0808 66.4487L42.3512 68.9352L43.2544 63.6681L39.4272 59.9378L44.7163 59.1691L47.0808 54.3772Z" fill="#FDF8C0"/>
<path fill-rule="evenodd" clip-rule="evenodd" d="M65.6123 37.3908L37.8564 36.3506L19.4845 52.412L18.5889 53.9695L56.1623 53.1512L65.6123 37.3908Z" fill="#2DAACD"/>
<path fill-rule="evenodd" clip-rule="evenodd" d="M63.662 37.3186L37.8565 36.3513L21.2363 50.881L54.6778 52.1343C54.9286 52.1437 55.1637 52.0136 55.2894 51.7968C56.3969 49.8898 61.696 40.7573 63.662 37.3186Z" fill="#1B86BA"/>
<path fill-rule="evenodd" clip-rule="evenodd" d="M65.6125 37.3909L65.4472 41.7994L55.9746 58.155L56.1619 53.1512L65.6125 37.3909Z" fill="#F7CCBC"/>
<path fill-rule="evenodd" clip-rule="evenodd" d="M65.6123 37.3909L65.601 37.6982L56.1284 54.0538L56.1624 53.1512L65.6123 37.3909Z" fill="#F5AA91"/>
<path fill-rule="evenodd" clip-rule="evenodd" d="M56.1624 53.1512L21.1747 51.8394C19.7926 51.7879 18.6311 52.8652 18.5789 54.2467C18.5274 55.6282 19.6053 56.791 20.9868 56.8425C29.3745 57.1568 55.9745 58.1543 55.9745 58.1543L56.1624 53.1512Z" fill="#90C8DF"/>
<path fill-rule="evenodd" clip-rule="evenodd" d="M56.1286 54.0531L56.0086 57.2517L21.0209 55.94C20.1378 55.9067 19.4483 55.1637 19.4816 54.28C19.5149 53.3976 20.2579 52.7081 21.1409 52.7414C21.1479 52.742 56.1286 54.0531 56.1286 54.0531Z" fill="white"/>
<path fill-rule="evenodd" clip-rule="evenodd" d="M63.3896 30.853L35.6338 29.8127L17.2619 45.8742L16.3662 47.4317L53.9397 46.6133L63.3896 30.853Z" fill="#FB311A"/>
<path fill-rule="evenodd" clip-rule="evenodd" d="M63.3898 30.853L63.2245 35.2615L53.752 51.6171L53.9393 46.6134L63.3898 30.853Z" fill="#F7CCBC"/>
<path fill-rule="evenodd" clip-rule="evenodd" d="M53.9393 46.6126L18.9516 45.3008C17.5695 45.2493 16.4079 46.3266 16.3558 47.7081C16.3042 49.0896 17.3822 50.2524 18.7637 50.304C27.1514 50.6182 53.7514 51.6157 53.7514 51.6157L53.9393 46.6126Z" fill="#F8B74D"/>
<path fill-rule="evenodd" clip-rule="evenodd" d="M53.9055 47.5153L53.7854 50.7139L18.7978 49.4021C17.9147 49.3688 17.2252 48.6259 17.2585 47.7422C17.2918 46.8597 18.0347 46.1702 18.9178 46.2036C18.9253 46.2036 53.9055 47.5153 53.9055 47.5153Z" fill="white"/>
<defs>
<filter id="filter0_d_2383_2552" x="0" y="0" width="82" height="88" filterUnits="userSpaceOnUse" color-interpolation-filters="sRGB">
<feFlood flood-opacity="0" result="BackgroundImageFix"/>
<feColorMatrix in="SourceAlpha" type="matrix" values="0 0 0 0 0 0 0 0 0 0 0 0 0 0 0 0 0 0 127 0" result="hardAlpha"/>
<feOffset/>
<feGaussianBlur stdDeviation="2"/>
<feComposite in2="hardAlpha" operator="out"/>
<feColorMatrix type="matrix" values="0 0 0 0 0 0 0 0 0 0 0 0 0 0 0 0 0 0 0.25 0"/>
<feBlend mode="normal" in2="BackgroundImageFix" result="effect1_dropShadow_2383_2552"/>
<feBlend mode="normal" in="SourceGraphic" in2="effect1_dropShadow_2383_2552" result="shape"/>
</filter>
</defs>
</svg>
