<svg width="146" height="147" viewBox="0 0 146 147" fill="none" xmlns="http://www.w3.org/2000/svg">
<path d="M28.6013 96.0461L32.2779 98.6037L27.8021 107.555L24.9561 103.319L28.6013 96.0461Z" fill="#FFBF9D"/>
<path d="M28.537 93.809C28.4414 93.6429 24.2959 87.0594 21.9516 84.5918C19.6073 82.1242 19.5454 79.4277 17.8799 79.2025C16.2144 78.9774 15.9059 81.3217 16.708 83.7278C17.51 86.134 19.6692 87.3678 19.0523 88.2313C18.4354 89.0952 5.08171 86.8414 5.08171 86.8414C5.08171 86.8414 3.35431 85.0768 1.99724 86.5572C1.99724 86.5572 -0.155706 86.045 0.00898928 87.7172C0.185585 89.5069 4.09449 89.5802 4.09449 89.5802L6.03228 93.0441L10.5386 94.7087C10.5386 94.7087 10.8123 96.6212 12.156 97.9164C13.4997 99.2121 14.487 99.9461 14.6721 99.9799C14.8573 100.014 18.8671 102.482 20.903 102.975C22.9388 103.469 25.6534 103.901 25.6534 103.901L29.3548 96.4975C29.3548 96.4984 29.4324 95.3684 28.537 93.809Z" fill="#FFBF9D"/>
<path d="M10.5871 94.9609C10.5871 94.9609 9.91924 93.2907 10.0811 91.876C10.2429 90.4613 11.5767 84.1957 12.1831 84.0748C12.7895 83.9535 13.8405 83.5898 14.1233 85.2877C14.406 86.9851 13.4359 90.9992 13.4359 91.0944C13.4359 91.1891 14.0647 92.321 14.1747 93.8166" fill="#FFBF9D"/>
<path d="M14.1747 93.8161C14.1428 93.819 14.1133 93.5005 13.9743 92.9479C13.9053 92.6713 13.8048 92.3377 13.6616 91.9607C13.5887 91.7722 13.5054 91.5737 13.4098 91.3638L13.3369 91.1972C13.2912 91.121 13.3246 90.9873 13.3322 90.9516C13.3555 90.8306 13.3793 90.7069 13.4036 90.5812C13.5954 89.574 13.8234 88.3707 13.9453 87.0293C13.9967 86.3625 14.0462 85.6456 13.8605 84.9773C13.7663 84.6489 13.5983 84.3385 13.3198 84.2181C13.039 84.0915 12.6762 84.16 12.294 84.2466C12.2231 84.2143 12.136 84.3975 12.0555 84.557C11.9779 84.7222 11.9099 84.8983 11.8475 85.0749C11.7219 85.4285 11.6133 85.7865 11.5119 86.1397C11.3092 86.8465 11.1364 87.5372 10.9779 88.197C10.6661 89.5159 10.4048 90.7145 10.2372 91.7198C10.0825 92.7109 10.2767 93.5391 10.3872 94.0922C10.5138 94.6496 10.6128 94.9519 10.5871 94.9619C10.5642 94.9714 10.4167 94.6843 10.2434 94.1303C10.0882 93.5791 9.84262 92.7437 9.96972 91.6827C10.1059 90.6531 10.3405 89.4503 10.6352 88.1179C10.7851 87.4525 10.9517 86.7561 11.1521 86.0383C11.2525 85.6794 11.3606 85.3157 11.4896 84.9483C11.5538 84.7645 11.6238 84.5803 11.7104 84.3947C11.7542 84.3014 11.7999 84.209 11.867 84.1119C11.8951 84.0653 11.9423 84.0115 11.9999 83.9606C12.0327 83.933 12.0955 83.9044 12.1455 83.8882L12.2155 83.8735C12.5858 83.7954 13.0351 83.6816 13.4731 83.8711C13.9134 84.0705 14.1157 84.5061 14.2194 84.874C14.4236 85.6427 14.3551 86.3824 14.2951 87.0622C14.1514 88.4292 13.8938 89.6321 13.6673 90.6379C13.6387 90.7621 13.6106 90.8844 13.583 91.0039C13.5706 91.0863 13.5526 91.0767 13.5706 91.1105L13.633 91.2695C13.7206 91.4851 13.7977 91.6936 13.862 91.8898C13.99 92.2834 14.0714 92.6314 14.1195 92.9179C14.2166 93.4915 14.1952 93.8152 14.1747 93.8161Z" fill="#FF9A6C"/>
<path d="M24.956 96.5241C24.9303 96.5922 24.223 96.1857 22.9064 96.0029C22.2514 95.9286 21.4393 95.9448 20.5768 96.2157C19.72 96.4717 18.8037 97.0049 18.065 97.7731L17.746 98.1044L17.7527 97.6527C17.7703 96.4598 17.7894 95.1623 17.8089 93.8057V93.8014L17.8103 93.7857C17.8213 93.6538 17.8332 93.512 17.8451 93.3692C17.8884 92.5686 17.8736 91.7551 17.6366 91.072C17.4267 90.399 16.6808 90.0139 16.091 90.2357C15.9477 90.2861 15.8178 90.3675 15.7307 90.4699C15.6417 90.5594 15.6202 90.7036 15.5769 90.8692C15.5046 91.1901 15.4513 91.5137 15.3989 91.8246C15.3042 92.4429 15.2156 93.0241 15.1328 93.5639C14.9843 94.5706 14.8596 95.4164 14.7606 96.089C14.6673 96.6836 14.5983 97.0153 14.5683 97.0087C14.5464 97.003 14.5645 96.674 14.613 96.0714C14.6625 95.4702 14.7444 94.6015 14.8648 93.5291C14.9262 92.9931 14.9962 92.4062 15.0857 91.776C15.1323 91.4604 15.1785 91.1363 15.249 90.7969C15.2647 90.7126 15.2918 90.6222 15.3132 90.5341C15.3432 90.4347 15.3994 90.3323 15.4655 90.2504C15.6021 90.0862 15.7821 89.9753 15.9725 89.9044C16.3557 89.7664 16.8017 89.7959 17.1772 89.9929C17.5452 90.1871 17.8508 90.5394 17.9859 90.9402C18.262 91.7289 18.2673 92.5595 18.2259 93.393C18.213 93.5434 18.2006 93.6929 18.1887 93.8318L18.1902 93.8128C18.1616 95.1694 18.134 96.4665 18.1088 97.6594L17.7965 97.5394C18.6195 96.704 19.5739 96.1838 20.4911 95.9286C21.4074 95.6659 22.2618 95.6787 22.9368 95.7873C23.2762 95.8439 23.5751 95.912 23.8265 96.0067C24.0825 96.0833 24.2953 96.1638 24.4586 96.2523C24.7913 96.4118 24.9646 96.506 24.956 96.5241Z" fill="#FF9A6C"/>
<path d="M10.0559 90.7069C10.0321 90.7655 8.99251 90.4004 7.39887 89.7849L7.35365 89.7673L7.32033 89.713C7.04615 89.2661 6.63727 88.7758 6.19411 88.2784C5.74239 87.7881 5.24783 87.2374 4.68758 86.7837C4.25918 86.4429 3.77747 86.1949 3.30337 86.1569C2.83547 86.124 2.38565 86.3496 2.13385 86.6557L2.13528 86.461C2.74741 87.3716 3.25244 88.1408 3.59659 88.6877C3.94074 89.2347 4.12399 89.5593 4.09401 89.5802C4.06402 89.6012 3.82412 89.3156 3.4319 88.802C3.04015 88.2884 2.49608 87.5463 1.85729 86.6538L1.78589 86.5538L1.85872 86.4591C2.18335 86.035 2.72646 85.7608 3.32336 85.787C3.9136 85.826 4.46005 86.1169 4.92225 86.4829C5.53486 86.9818 6.00895 87.5268 6.46544 88.039C6.91145 88.5626 7.30271 89.0509 7.59307 89.5712L7.51501 89.4998C9.08247 90.1795 10.0797 90.6484 10.0559 90.7069Z" fill="#FF9A6C"/>
<path d="M108.863 34.1893C110.154 30.7997 111.432 27.3839 112.121 23.8225C112.81 20.2615 112.886 16.5178 111.793 13.0592C111.628 12.5351 110.168 9.00084 109.619 9.02749C109.226 9.04653 110.071 12.3181 109.857 12.6475C107.811 15.7905 107.105 19.658 107.221 23.4069C107.336 27.1554 107.946 30.5526 108.863 34.1893Z" fill="#263238"/>
<path d="M105.588 58.8069L109.907 20.3857C110.654 11.3199 106 3.32927 96.9166 2.83423L96.0746 2.83756C87.6004 2.87088 80.5694 9.40254 79.9211 17.852C79.3175 25.7131 78.7521 34.4072 78.8206 38.6232C78.9624 47.3506 87.6975 48.6743 87.6975 48.6743C87.717 48.6753 87.3914 57.547 87.2905 60.1064L100.454 59.8665L103.605 59.6918L105.588 58.8069Z" fill="#FFBF9D"/>
<path d="M87.6974 48.6739C87.6974 48.6739 93.2005 48.9752 99.0491 45.27C99.0491 45.27 96.3406 51.8426 87.6284 51.0905L87.6974 48.6739Z" fill="#FF9A6C"/>
<path d="M83.968 25.9206C83.9471 26.5789 84.4878 27.1391 85.1747 27.1734C85.8606 27.2077 86.4341 26.7031 86.4546 26.0443C86.4756 25.386 85.9353 24.8248 85.2494 24.7905C84.563 24.7567 83.9885 25.2623 83.968 25.9206Z" fill="#263238"/>
<path d="M81.7921 21.699C81.9473 21.8608 82.8888 21.1582 84.2302 21.1568C85.5696 21.1359 86.5569 21.8223 86.7016 21.6571C86.773 21.5843 86.6145 21.2915 86.1846 20.9807C85.7615 20.6718 85.0408 20.3719 84.205 20.379C83.3696 20.3871 82.668 20.697 82.2653 21.0135C81.854 21.332 81.7155 21.6266 81.7921 21.699Z" fill="#263238"/>
<path d="M95.8042 26.1762C95.7837 26.8345 96.3239 27.3948 97.0108 27.4291C97.6967 27.4633 98.2708 26.9588 98.2912 26.3005C98.3117 25.6422 97.7715 25.081 97.0855 25.0467C96.3987 25.0124 95.8251 25.5184 95.8042 26.1762Z" fill="#263238"/>
<path d="M94.9411 21.9588C95.0968 22.1207 96.0393 21.4186 97.3797 21.4167C98.7191 21.3957 99.7064 22.0821 99.8516 21.9169C99.9225 21.8441 99.7654 21.5514 99.3337 21.241C98.911 20.9316 98.1898 20.6327 97.3545 20.6389C96.5191 20.647 95.8175 20.9573 95.4143 21.2734C95.0045 21.5918 94.865 21.8865 94.9411 21.9588Z" fill="#263238"/>
<path d="M90.1697 32.2842C90.1754 32.2081 89.3415 32.0672 87.9896 31.8996C87.6469 31.8658 87.3223 31.7992 87.2638 31.5655C87.1824 31.3184 87.3237 30.9486 87.4884 30.5492C87.8073 29.7191 88.141 28.8489 88.4914 27.9374C89.8837 24.2184 90.8899 21.1616 90.74 21.1068C90.5896 21.0521 89.3391 24.0218 87.9473 27.7403C87.6122 28.6576 87.2918 29.5315 86.9872 30.3679C86.8592 30.7572 86.6378 31.1999 86.8149 31.7126C86.9082 31.9682 87.1605 32.1529 87.3799 32.2109C87.5998 32.2771 87.7926 32.2804 87.962 32.2895C89.3215 32.3575 90.1645 32.3604 90.1697 32.2842Z" fill="#263238"/>
<path d="M94.4424 17.3112C94.5733 17.6763 95.9132 17.5088 97.4859 17.7049C99.0629 17.8691 100.33 18.3351 100.54 18.009C100.634 17.8529 100.414 17.5088 99.9021 17.1537C99.3951 16.7991 98.585 16.4606 97.6406 16.3516C96.6962 16.2445 95.8308 16.3911 95.2568 16.622C94.678 16.8524 94.3857 17.138 94.4424 17.3112Z" fill="#263238"/>
<path d="M81.4181 18.07C81.6937 18.3775 82.7889 18.0733 84.1027 18.0733C85.4155 18.0343 86.5255 18.3046 86.7849 17.9891C86.8987 17.8358 86.7274 17.5288 86.2447 17.2351C85.7692 16.9423 84.9709 16.6986 84.0684 16.7119C83.1659 16.7262 82.381 16.9937 81.9207 17.3008C81.4528 17.6083 81.2972 17.92 81.4181 18.07Z" fill="#263238"/>
<path d="M109.219 26.8516C109.368 26.7869 115.21 25.0547 115.042 31.0223C114.875 36.9899 107.649 35.0207 107.643 34.8494C107.638 34.6775 109.219 26.8516 109.219 26.8516Z" fill="#FFBF9D"/>
<path d="M110.799 33.2101C110.825 33.1915 110.9 33.2858 111.074 33.371C111.243 33.4543 111.536 33.5166 111.851 33.4086C112.488 33.1949 113.047 32.2086 113.106 31.1338C113.137 30.5911 113.037 30.0709 112.857 29.6372C112.687 29.1955 112.413 28.8828 112.097 28.8171C111.783 28.7352 111.554 28.919 111.475 29.0851C111.391 29.2498 111.425 29.3697 111.394 29.3793C111.376 29.3935 111.268 29.2755 111.323 29.0304C111.351 28.9123 111.425 28.7738 111.569 28.6629C111.715 28.5505 111.927 28.4968 112.148 28.5272C112.607 28.572 113.01 29.007 113.208 29.4826C113.432 29.9614 113.556 30.5469 113.522 31.1562C113.45 32.3576 112.803 33.4657 111.933 33.6909C111.51 33.7889 111.163 33.6523 110.987 33.5062C110.805 33.3543 110.778 33.2201 110.799 33.2101Z" fill="#FF9A6C"/>
<path d="M84.1456 8.11063C83.1998 7.54228 86.2128 4.52207 88.6252 3.53295C92.2714 2.03831 97.7849 1.23815 101.057 2.29773C104.996 3.57341 108.231 5.67589 110.096 9.37345C111.961 13.0701 112.557 17.3198 112.288 21.4519C112.206 22.7128 112.027 24.0237 111.313 25.0657C110.431 26.3542 109.215 26.9621 108.805 28.948C108.67 29.6001 108.591 30.2784 108.118 30.7463C106.983 31.8673 105.688 30.7272 105.114 29.6105C103.889 27.2253 103.846 24.4302 103.83 21.7485C103.818 19.8426 103.812 17.8962 104.416 16.0884C104.744 15.105 105.248 14.1825 105.522 13.1819C105.795 12.1814 105.807 11.0352 105.209 10.1879C105.112 10.0503 104.949 9.87516 104.743 9.68C103.108 8.13681 100.758 7.60655 98.6131 8.27723C95.2092 9.34204 89.4068 10.9052 87.9502 9.70998C85.8549 7.9902 85.3784 6.90159 85.3784 6.90159L84.1456 8.11063Z" fill="#263238"/>
<path d="M78.9281 33.8093C79.7902 33.1996 81.2153 33.6556 81.5314 34.6419C82.0088 33.9974 82.8823 33.6513 83.69 33.7865C84.4978 33.9217 85.1999 34.5314 85.426 35.294C85.7973 34.1354 87.6827 33.8265 88.4276 34.8027C88.7342 34.3163 89.3877 34.0626 89.957 34.2087C89.8909 33.677 90.1874 33.1201 90.6734 32.8645C91.1599 32.6089 91.8044 32.6707 92.229 33.0135C92.8582 31.9106 94.6166 31.6283 95.5805 32.4751C95.7423 31.9682 96.2802 31.5988 96.8281 31.6183C97.3759 31.6378 97.8843 32.0443 98.0076 32.5613C98.5402 31.8925 99.5593 31.6364 100.361 31.9696C100.353 31.1785 101.275 30.5202 102.054 30.7615C101.858 30.0884 102.88 29.7852 103.403 29.3026C103.637 29.0865 103.786 28.7918 104.038 28.5957C104.291 28.3996 104.728 28.3568 104.892 28.6262C104.759 28.0883 105.103 27.4795 105.643 27.2986C106.183 27.1173 106.843 27.3895 107.082 27.8922C107.223 28.1897 107.224 28.5286 107.272 28.8523C107.429 29.8976 108.034 31.1399 107.251 31.8749C107.112 32.0048 106.933 32.1114 106.874 32.289C106.774 32.5917 107.081 32.8811 107.103 33.1981C107.129 33.5675 106.779 33.8484 106.623 34.1863C106.391 34.6866 106.603 35.2621 106.643 35.8085C106.684 36.3554 106.362 37.049 105.798 36.9938C106.22 37.7882 105.937 38.8668 105.176 39.3714C105.613 40.2943 105.044 41.5291 104.042 41.8309C104.416 42.1217 104.389 42.7138 104.114 43.0951C103.839 43.4764 103.39 43.6973 102.959 43.9034C103.351 44.1004 103.4 44.6664 103.157 45.0229C102.914 45.379 102.477 45.5613 102.052 45.6765C101.87 45.726 101.668 45.7774 101.56 45.9283C101.359 46.2115 101.629 46.5966 101.574 46.9364C101.489 47.4567 100.732 47.6057 100.505 48.0845C100.303 48.5106 100.566 49.1079 100.213 49.4297C99.9844 49.6382 99.6222 49.5992 99.3256 49.6996C98.7977 49.8791 98.5626 50.4545 98.2266 50.8877C97.5925 51.7045 96.5172 52.0615 95.4938 52.3114C94.9726 52.439 94.4471 52.5504 93.9183 52.6451C92.864 52.834 91.7991 52.9583 90.7343 53.0825C90.206 53.1439 89.5558 53.152 89.2782 52.7127C88.5395 53.588 86.8607 53.3962 86.3532 52.378C85.4017 52.6241 84.4112 52.2362 83.5082 51.8554C83.1964 51.7235 82.8842 51.5922 82.5724 51.4608C81.6418 51.0686 80.6065 50.5645 80.3328 49.6192C79.1142 49.4511 78.3127 47.9722 78.8629 46.9069C78.4383 47.024 78.0275 46.6094 77.9604 46.1877C77.8928 45.7659 78.048 45.3447 78.127 44.9249C78.4493 43.2165 77.5125 41.4758 77.7567 39.755C77.9276 38.5507 78.6692 37.3598 78.3131 36.1936C78.2398 35.9537 78.1199 35.7171 78.138 35.4677C78.1561 35.2183 78.3936 34.9593 78.6406 35.0331C78.3222 34.3448 79.0314 33.4442 79.8021 33.559" fill="#263238"/>
<path d="M110.346 7.35713C105.738 3.06505 99.9821 -0.0908246 93.0106 0.0019952C87.1744 0.079583 81.1749 1.55994 79.9501 8.86509L78.8254 18.5341C78.7563 18.9853 79.0457 19.4261 79.477 19.4832C79.567 19.4951 79.6326 19.4884 79.6479 19.4489C80.152 18.1333 81.0016 12.9554 90.9638 12.9554C103.752 12.9554 111.377 25.358 112.057 24.6268C112.737 23.8957 113.01 19.5684 113.418 17.2969C113.826 15.0259 114.954 11.6492 110.346 7.35713Z" fill="#F5B304"/>
<path d="M90.2426 36.5064L90.4111 36.3203C91.4807 35.8771 92.5502 35.4335 93.6198 34.9903C93.7935 34.9185 93.9782 34.8442 94.1634 34.849C94.3862 34.8552 94.5599 34.9756 94.6903 35.1065C95.2929 35.7124 95.2634 36.6892 94.6204 37.3956C93.9778 38.102 92.7749 38.4808 91.8015 38.2828C90.8271 38.0853 90.1626 37.3275 90.2426 36.5064Z" fill="white"/>
<path d="M64.4055 67.443C64.4055 67.443 58.237 70.1819 55.8161 79.7618C54.1458 86.3706 48.876 104.431 48.876 104.431L31.4483 93.5591L23.7513 112.068C23.7513 112.068 45.8406 129.315 51.0784 128.991C56.3168 128.667 61.8289 124.38 63.383 120.383C64.9371 116.386 67.5385 89.5903 67.5385 89.5903L64.4055 67.443Z" fill="#F5B304"/>
<path d="M124.413 103.441C124.465 103.724 124.521 103.65 124.578 103.392L125.242 82.3646L126.741 61.521C126.741 61.521 112.229 58.1253 109.033 57.1L108.04 53.6038L85.9944 56.0994L85.4118 59.549L67.5589 65.8783C67.3985 65.9345 67.2333 65.9983 67.0658 66.0673C64.1403 67.2782 64.4054 67.4434 64.4054 67.4434L64.5754 105.253L64.4664 113.082L62.2035 132.711L60.2157 146.528L126.085 146.609C125.916 143.807 122.993 126.235 122.993 126.235L124.413 103.441Z" fill="#F5B304"/>
<path d="M64.4054 79.9246C64.4097 79.9246 64.4126 79.9626 64.4145 80.0369C64.4149 80.1259 64.4159 80.2335 64.4168 80.3653C64.413 80.6747 64.4078 81.096 64.4016 81.6277C64.3769 82.7463 64.3421 84.3261 64.2993 86.2687C64.1888 90.2061 64.0375 95.6092 63.8704 101.577C63.6786 107.547 63.5048 112.95 63.3787 116.887C63.3073 118.829 63.2497 120.408 63.2083 121.525C63.165 122.609 63.1326 123.252 63.125 123.199C63.0983 123.252 63.0983 122.606 63.1117 121.523C63.1336 120.404 63.165 118.825 63.203 116.882C63.3111 112.944 63.4587 107.541 63.6224 101.57C63.818 95.6021 63.9946 90.1999 64.1236 86.263C64.1998 84.3214 64.2612 82.742 64.305 81.6244C64.3312 81.0931 64.3516 80.6728 64.3669 80.3634C64.3759 80.2321 64.3831 80.1245 64.3892 80.0355C64.3954 79.9622 64.4011 79.9246 64.4054 79.9246Z" fill="#263238"/>
<path d="M112.612 115.977C112.612 115.977 116.129 115.015 119.755 113.907L127.826 111.011L125.32 96.4988L142.272 90.5636C142.272 90.5636 145.19 111.76 144.474 117.155C143.774 122.433 140.832 123.686 136.711 125.028C132.59 126.37 102.424 124.874 102.002 125.523C101.58 126.172 106.112 119.559 106.112 119.559L112.612 115.977Z" fill="#FFBF9D"/>
<path d="M145.912 110.458C145.815 108.263 145.297 104.303 143.857 98.2619C142.721 90.1928 138.052 72.7531 135.873 68.3235C132.713 61.9004 126.741 61.5205 126.741 61.5205L124.526 94.9447L126.745 109.326L116.104 112.889L115.493 127.664C115.493 127.664 131.394 127.126 136.773 125.797C142.152 124.469 146.302 119.27 145.912 110.458Z" fill="#F5B304"/>
<path d="M126.111 70.3337C126.18 70.3371 125.86 78.2725 125.397 88.0557C124.934 97.8422 124.504 105.771 124.435 105.768C124.366 105.764 124.686 97.8308 125.149 88.0438C125.612 78.261 126.042 70.3309 126.111 70.3337Z" fill="#263238"/>
<path d="M109.033 57.099C109.034 57.1076 108.952 57.1271 108.795 57.1562C108.61 57.1876 108.383 57.2257 108.108 57.2723C107.473 57.3689 106.617 57.4989 105.576 57.6574C103.437 57.9715 100.481 58.4047 97.2036 58.7969C93.9244 59.1882 90.9423 59.4272 88.7813 59.5352C87.7007 59.5885 86.8259 59.6209 86.2209 59.628C85.9419 59.6304 85.712 59.6318 85.524 59.6333C85.3645 59.6318 85.2808 59.6266 85.2808 59.618C85.2803 59.6095 85.3636 59.5976 85.5226 59.5833C85.7097 59.5695 85.9391 59.5523 86.2171 59.5314C86.8573 59.4886 87.7207 59.4305 88.7708 59.36C90.9261 59.2072 93.8997 58.9412 97.1745 58.5504C100.448 58.1581 103.407 57.7531 105.553 57.4832C106.598 57.357 107.458 57.2533 108.096 57.1762C108.373 57.1481 108.602 57.1247 108.789 57.1062C108.947 57.0938 109.031 57.091 109.033 57.099Z" fill="#263238"/>
<path d="M103.732 116.595C103.463 117.274 96.9318 120.754 96.9318 120.754H93.953C93.953 120.754 92.0424 118.113 92.1547 117.719C92.267 117.326 93.3913 112.998 91.8177 113.223C90.244 113.447 89.1764 116.249 88.9512 116.984C88.7265 117.719 89.2321 118.899 89.2321 118.899C89.2321 118.899 86.5346 115.583 84.6796 116.426C82.8251 117.269 83.7243 118.45 83.7243 118.45L89.1197 123.114C89.1197 123.114 85.4664 122.665 85.5226 125.306L88.7822 126.824L94.0972 127.725C94.7398 127.834 95.4001 127.78 96.016 127.568L97.316 127.119C97.316 127.119 100.472 126.768 102.214 126.149C103.957 125.531 105.785 123.502 105.785 123.502L112.612 115.977C112.612 115.977 113.567 112.099 111.375 111.031C109.183 109.963 109.914 110.975 109.183 109.963C108.452 108.952 105.622 107.706 105.474 110.75C105.359 113.109 106.373 113.673 106.541 113.673C106.711 113.673 104.8 113.898 103.732 116.595Z" fill="#FFBF9D"/>
<path d="M94.3096 120.754C94.2886 120.856 93.0225 120.686 91.4593 120.371L91.4236 120.364L91.3931 120.345C91.3674 120.328 91.3393 120.31 91.3112 120.292C89.9351 119.41 88.8946 118.501 89.0469 118.363C89.0793 118.357 89.3116 118.543 89.7695 118.833C90.395 119.238 90.94 119.591 91.5216 119.968C91.5493 119.985 91.5764 120.003 91.6016 120.019L91.5359 119.993C93.0977 120.315 94.33 120.652 94.3096 120.754Z" fill="#FF9A6C"/>
<path d="M103.131 120.259C103.133 120.298 102.909 120.316 102.552 120.45C102.204 120.587 101.708 120.872 101.286 121.362L101.299 121.345C100.983 121.86 100.643 122.415 100.285 122.999L100.25 123.055L100.181 123.078C99.834 123.191 99.4646 123.337 99.1005 123.503C98.435 123.804 97.8315 124.156 97.3545 124.554C96.8742 124.951 96.5344 125.405 96.5824 125.848C96.6129 126.284 96.8752 126.601 97.0404 126.799C97.2174 126.997 97.3317 127.097 97.3164 127.119C97.3031 127.141 97.1565 127.083 96.9361 126.907C96.7314 126.729 96.3963 126.424 96.3107 125.874C96.2731 125.605 96.333 125.29 96.4925 125.018C96.6572 124.748 96.8718 124.509 97.1213 124.285C97.6225 123.841 98.2508 123.463 98.9406 123.151C99.3209 122.978 99.695 122.834 100.072 122.717L99.9673 122.797C100.344 122.224 100.702 121.681 101.034 121.177L101.042 121.164L101.046 121.159C101.555 120.628 102.103 120.378 102.499 120.279C102.9 120.189 103.132 120.234 103.131 120.259Z" fill="#FF9A6C"/>
<path d="M106.542 113.673C106.573 113.623 106.736 113.672 106.996 113.717C107.259 113.76 107.624 113.794 108.036 113.796C108.86 113.804 109.544 113.742 109.565 113.85C109.588 113.95 108.912 114.189 108.031 114.182C107.592 114.18 107.189 114.098 106.917 113.979C106.644 113.856 106.516 113.712 106.542 113.673Z" fill="#FF9A6C"/>
<path d="M107.083 121.918C107.17 121.968 106.56 123.079 105.424 124.127C104.293 125.183 103.139 125.707 103.096 125.617C103.039 125.519 104.071 124.863 105.161 123.844C106.259 122.834 106.989 121.854 107.083 121.918Z" fill="#FF9A6C"/>
<path d="M97.892 122.109C97.9091 122.161 97.187 122.447 96.0641 123.01C95.7728 123.158 95.4672 123.312 95.1469 123.475C94.9793 123.56 94.808 123.647 94.6333 123.736L94.4948 123.802L94.4172 123.836C94.3734 123.855 94.2886 123.867 94.282 123.859L93.9745 123.829C93.1281 123.74 92.2219 123.646 91.2708 123.546C90.792 123.492 90.3255 123.439 89.8709 123.388C89.4173 123.33 88.9822 123.28 88.5819 123.278C87.7732 123.264 87.0373 123.398 86.5308 123.714C86.0082 124.011 85.7673 124.468 85.6583 124.784C85.5541 125.108 85.5507 125.305 85.5226 125.306C85.4984 125.31 85.4474 125.107 85.5131 124.746C85.5817 124.396 85.814 123.853 86.3837 123.484C86.9373 123.097 87.7322 122.928 88.5833 122.922C89.0184 122.915 89.453 122.959 89.8999 123.01C90.3512 123.059 90.8153 123.109 91.2908 123.16C92.2352 123.27 93.1353 123.375 93.9764 123.473L94.282 123.51C94.2634 123.532 94.4191 123.459 94.4871 123.429C94.6637 123.346 94.8365 123.266 95.006 123.186C95.3349 123.038 95.649 122.897 95.9489 122.762C97.1118 122.257 97.8772 122.06 97.892 122.109Z" fill="#FF9A6C"/>
<path d="M127.55 126.968C127.55 126.973 127.475 126.983 127.329 126.997C127.166 127.01 126.954 127.028 126.685 127.05C126.101 127.091 125.277 127.149 124.239 127.221C122.11 127.355 119.103 127.544 115.5 127.771L115.382 127.778L115.387 127.66C115.53 124.087 115.698 119.869 115.878 115.365C115.912 114.526 115.947 113.697 115.981 112.884L115.985 112.797L116.068 112.771C120.194 111.507 123.995 110.342 127.179 109.366L127.209 109.357L127.238 109.366C130.262 110.297 132.317 112.035 133.505 113.358C134.703 114.704 135.138 115.635 135.138 115.635C135.134 115.638 135.096 115.587 135.026 115.486C134.948 115.371 134.848 115.223 134.721 115.037C134.446 114.65 134.029 114.087 133.421 113.435C132.217 112.146 130.165 110.454 127.181 109.558H127.239C124.059 110.547 120.262 111.726 116.141 113.007L116.227 112.894C116.194 113.706 116.16 114.535 116.126 115.374C115.933 119.878 115.753 124.096 115.601 127.668L115.488 127.557C119.093 127.367 122.102 127.208 124.232 127.096C125.272 127.048 126.097 127.011 126.682 126.984C126.951 126.975 127.164 126.969 127.328 126.963C127.473 126.961 127.549 126.962 127.55 126.968Z" fill="#263238"/>
<path d="M138.661 112.109C138.633 112.144 138.118 111.725 137.204 111.179C136.293 110.632 134.957 109.996 133.386 109.589C131.814 109.188 130.336 109.102 129.274 109.143C128.211 109.181 127.557 109.3 127.549 109.256C127.546 109.239 127.707 109.197 128.002 109.135C128.295 109.069 128.728 109.009 129.265 108.968C130.338 108.881 131.847 108.941 133.448 109.349C135.047 109.763 136.398 110.438 137.297 111.031C137.747 111.326 138.097 111.587 138.323 111.786C138.551 111.982 138.672 112.095 138.661 112.109Z" fill="#263238"/>
<path d="M52.9876 116.386C52.9453 116.388 52.9015 115.652 52.7249 114.48C52.5497 113.309 52.2084 111.703 51.6072 109.999C51.0018 108.296 50.2563 106.833 49.6552 105.812C49.0549 104.79 48.6265 104.191 48.6603 104.166C48.6741 104.156 48.7936 104.296 48.9983 104.56C49.2058 104.821 49.4833 105.217 49.8046 105.721C50.4491 106.726 51.2283 108.194 51.8405 109.916C52.4483 111.639 52.7663 113.27 52.8981 114.457C52.9653 115.05 52.9986 115.533 53.0019 115.867C53.009 116.2 53.0048 116.385 52.9876 116.386Z" fill="#263238"/>
<path d="M56.2017 112.234C56.1679 112.252 55.8861 111.76 55.3968 110.989C54.9084 110.218 54.1968 109.176 53.319 108.095C52.4399 107.016 51.564 106.107 50.9081 105.472C50.2526 104.836 49.8285 104.46 49.8528 104.43C49.8718 104.407 50.3364 104.735 51.0271 105.343C51.7178 105.95 52.6231 106.849 53.5108 107.938C54.3967 109.029 55.0926 110.098 55.5462 110.898C56.0013 111.698 56.2283 112.22 56.2017 112.234Z" fill="#263238"/>
</svg>
