<svg width="107" height="150" viewBox="0 0 107 150" fill="none" xmlns="http://www.w3.org/2000/svg">
<path d="M78.3438 24.0751C78.3438 24.0751 82.0886 21.9777 87.657 23.8759C87.657 23.8759 87.7534 27.4016 83.2861 27.3811C78.8184 27.3609 78.3438 24.0751 78.3438 24.0751Z" fill="#0F2937"/>
<path d="M82.4963 80.9427L68.3047 163.075C67.9916 164.886 66.2353 166.107 64.3812 165.801C62.6094 165.509 61.3912 163.917 61.56 162.197L69.8937 79.3011C70.2372 75.8857 73.3497 73.3885 76.8457 73.7241C80.3421 74.0595 82.8977 77.1002 82.5542 80.5159C82.5402 80.6545 82.5187 80.8075 82.4963 80.9427Z" fill="#F7958F"/>
<path d="M97.3627 80.0043L96.3811 162.568C96.3583 164.486 94.7486 166.022 92.7854 166C90.9004 165.979 89.3748 164.517 89.2767 162.703L85.0029 80.2396C84.8303 76.9072 87.4553 74.0691 90.8664 73.9007C94.2772 73.7317 97.1823 76.2963 97.3549 79.6287C97.3614 79.7485 97.3634 79.8857 97.3627 80.0043Z" fill="#F7958F"/>
<path d="M58.703 60.591L45.3191 41.1789C44.5169 40.0152 44.8319 38.4365 46.0232 37.6525C47.1269 36.9261 48.5958 37.1377 49.4437 38.0987L65.1068 55.8088C66.5646 57.4573 66.3787 59.9481 64.6913 61.3723C63.0042 62.7965 60.4546 62.6146 58.9968 60.9664C58.8951 60.8514 58.7887 60.7133 58.703 60.591Z" fill="#FFBF9D"/>
<path d="M62.3821 62.3323C61.8931 62.3323 61.3962 62.2449 60.9133 62.0601C58.8406 61.2671 57.8185 58.983 58.6303 56.9582L68.8142 31.5552C69.6256 29.5303 71.9634 28.532 74.0365 29.3248C76.1092 30.1178 77.1313 32.4021 76.3196 34.4268L66.1356 59.8297C65.5131 61.3831 63.992 62.3323 62.3821 62.3323Z" fill="#FFBF9D"/>
<path d="M48.9106 40.8079C48.9106 40.8079 55.0261 36.659 55.0524 35.9117C55.0786 35.1645 50.4196 37.0522 50.4196 37.0522C50.4196 37.0522 48.2595 25.8151 47.567 25.8351C46.8742 25.8551 47.596 30.8265 47.596 30.8265C47.596 30.8265 46.0192 25.4075 45.3259 25.5654C44.6976 25.7089 45.985 31.4306 45.985 31.4306C45.985 31.4306 43.706 25.9577 43.2688 26.416C42.8315 26.8744 44.496 31.9971 44.496 31.9971C44.496 31.9971 42.1023 27.8483 41.8317 28.1829C41.5614 28.5173 43.1498 33.1582 43.1498 33.1582C43.5176 35.4599 43.6937 38.2038 44.0178 39.2651C45.3054 43.4818 48.9106 40.8079 48.9106 40.8079Z" fill="#FFBF9D"/>
<path d="M64.752 55.2451L64.6913 55.2227L61.0511 52.0636C61.0132 52.0306 61.0099 51.9742 61.0431 51.9371C61.0774 51.8998 61.1351 51.8971 61.1726 51.9296L64.8127 55.0887C64.8507 55.1216 64.8539 55.1782 64.8207 55.2151C64.8022 55.2351 64.7772 55.2451 64.752 55.2451Z" fill="#C85651"/>
<path d="M69.3531 71.6989L60.4466 152.938H72.0711L83.6381 80.8286L84.5675 69.5642L69.3531 71.6989Z" fill="#602B1D"/>
<path d="M99.3858 71.3472L98.2113 152.938H86.7755L82.7089 68.2552L99.3858 71.3472Z" fill="#602B1D"/>
<path d="M83.3731 82.1716C83.3239 82.1716 83.2831 82.1336 83.2816 82.085L82.9394 70.8884C82.9379 70.8391 82.9776 70.7978 83.0283 70.7964C83.081 70.7937 83.121 70.8335 83.1223 70.883L83.4648 82.0796C83.466 82.1292 83.4263 82.1704 83.3758 82.1716H83.3731Z" fill="#0F2937"/>
<path d="M83.3488 81.3777C82.4561 81.3777 81.4782 80.809 81.456 79.8908L81.0855 71.2758C81.0832 71.2265 81.1227 71.1848 81.1732 71.1826C81.2336 71.1816 81.2666 71.2187 81.2686 71.2682L81.6389 79.8847C81.6589 80.697 82.5418 81.1988 83.3488 81.1988C83.3992 81.1988 83.4402 81.2389 83.4402 81.2882C83.4402 81.3375 83.3992 81.3777 83.3488 81.3777Z" fill="#0F2937"/>
<path d="M98.4537 77.1647L98.443 77.1642C95.0872 76.7795 93.419 74.9089 93.1934 71.2775C93.1904 71.2282 93.2289 71.1857 93.2794 71.1826C93.3366 71.1823 93.3733 71.2175 93.3763 71.2665C93.5956 74.7961 95.2124 76.6135 98.4645 76.9863C98.5147 76.9921 98.5504 77.0365 98.5447 77.0858C98.5392 77.1312 98.4995 77.1647 98.4537 77.1647Z" fill="#0F2937"/>
<path d="M69.1009 77.9935C69.0737 77.9935 69.0467 77.9816 69.0285 77.9591C68.9975 77.9201 69.005 77.8637 69.0449 77.8334C70.7314 76.5564 72.1257 74.142 72.5971 71.6826C72.6066 71.6341 72.6561 71.6033 72.7038 71.6111C72.7538 71.6201 72.7863 71.6668 72.777 71.7156C72.2906 74.254 70.9035 76.6523 69.1571 77.975L69.1009 77.9935Z" fill="#0F2937"/>
<path d="M112.903 53.8722C111.798 53.8722 110.698 53.4309 109.901 52.5642L94.3416 35.6202C92.8553 34.0015 92.9935 31.5122 94.6502 30.0601C96.3069 28.6084 98.855 28.7431 100.341 30.3616L115.901 47.3055C117.388 48.9242 117.249 51.4133 115.593 52.8656C114.823 53.54 113.861 53.8722 112.903 53.8722Z" fill="#FFBF9D"/>
<path d="M100.21 85.5737C99.2703 85.6665 98.3084 85.7519 97.3266 85.8276L96.4771 80.4627L94.4832 86.0204C83.8326 86.6452 71.7806 86.3231 65 85.2686L69.692 41.2759L72.4002 26.7362L81.3394 24L93.5016 25.8062L97.8512 43.2359L100.21 85.5737Z" fill="white"/>
<path d="M72.8465 26.8122C69.6956 27.8088 67.1762 30.1458 65.9945 33.168L61.1119 45.6511C63.8089 48.0773 67.5557 49.2901 71.2158 49.5493L72.8465 26.8122Z" fill="white"/>
<path d="M93.9458 25.8811C96.3163 26.3026 98.4931 27.4361 100.174 29.1232L111.504 41.0345C109.614 44.3337 107.192 47.0227 103.995 48.8223L95.5328 42.8084L88.0242 31.9808L93.9458 25.8811Z" fill="white"/>
<path d="M80.4989 58.4402C80.6825 51.8401 80.9721 45.2429 81.2316 38.6452C81.378 34.9206 81.5247 31.1959 81.6711 27.4713C81.6773 27.3136 81.429 27.3139 81.423 27.4713C81.1619 34.1076 80.9003 40.7438 80.6398 47.3801C80.3809 53.9736 80.1316 60.5693 80.0986 67.1685C80.0846 69.9639 80.1124 82.729 80.1921 86.3806C80.2743 86.3819 80.3552 86.3838 80.4377 86.3852C80.2773 80.2049 80.3407 64.1312 80.4989 58.4402ZM78.8282 86.3508C78.9708 80.0656 79.1135 63.9386 79.2562 58.1651C79.4191 51.5643 79.5825 44.9634 79.7453 38.3626C79.8373 34.6389 79.9292 30.9155 80.0212 27.1918C80.0252 27.0342 79.7768 27.0342 79.7728 27.1918C79.6092 33.8266 79.4453 40.4612 79.2811 47.0959C79.1183 53.6968 78.9551 60.2977 78.792 66.8985C78.721 69.7728 78.6501 82.5876 78.5791 86.3442C78.662 86.3464 78.745 86.3486 78.8282 86.3508ZM85.5561 57.8242C85.5141 54.6458 85.4719 51.4679 85.4297 48.2897C85.3879 45.1484 85.3182 42.0059 85.3342 38.8644C85.3522 35.3326 85.5169 31.7903 86.1412 28.3065C86.1689 28.1523 85.9296 28.0861 85.9016 28.2414C84.7928 34.4314 85.0816 40.7699 85.1646 47.0249C85.2493 53.4134 85.334 59.8022 85.4187 66.1909C85.4602 69.3083 85.5014 82.7138 85.5428 86.4038C85.6253 86.4031 85.708 86.4021 85.7907 86.4016C85.7127 80.1757 85.6343 63.7233 85.5561 57.8242ZM87.3127 86.3804C87.23 86.3816 87.1473 86.3828 87.0646 86.3843C87.0649 83.1727 87.0651 70.2033 87.0654 67.5441C87.0661 60.8229 87.0669 54.1017 87.0676 47.3803C87.0681 40.6249 87.0686 33.8693 87.0694 27.1137C87.0694 26.9556 87.3177 26.9561 87.3177 27.1137C87.3174 30.905 87.3172 34.6965 87.3167 38.4878C87.3159 45.209 87.3152 51.9302 87.3147 58.6514C87.314 64.2678 87.3135 80.4793 87.3127 86.3804Z" fill="#F2AF36"/>
<path d="M69.2461 49.7998H69.2406C69.1902 49.7966 69.1517 49.7542 69.1547 49.7049C69.1624 49.5882 69.8972 37.9871 70.0499 31.9787C70.0511 31.9293 70.0911 31.8971 70.1436 31.8913C70.1943 31.8927 70.2343 31.9337 70.233 31.9831C70.0801 37.9947 69.3451 49.5992 69.3378 49.7158C69.3346 49.7632 69.2944 49.7998 69.2461 49.7998Z" fill="#9AD2F2"/>
<path d="M69.7881 40.3939L69.7276 40.3715C68.2001 39.0539 68.1484 36.5834 68.1469 36.4789C68.1461 36.4296 68.1866 36.3888 68.2371 36.3881C68.2858 36.3871 68.3292 36.4272 68.3297 36.4765C68.3302 36.5014 68.3827 38.9729 69.8488 40.2372C69.8867 40.2702 69.8905 40.3266 69.8568 40.3637C69.8388 40.3837 69.8135 40.3939 69.7881 40.3939Z" fill="#9AD2F2"/>
<path d="M98.325 44.104C98.2925 44.104 98.2611 44.0869 98.2446 44.0569C94.162 36.6789 95.3422 29.7136 95.3544 29.6441C95.3632 29.5955 95.4114 29.563 95.4604 29.5713C95.5103 29.5799 95.5436 29.6262 95.5351 29.6748C95.5228 29.7439 94.3546 36.6506 98.4055 43.972C98.4297 44.0154 98.4132 44.0696 98.3687 44.0933L98.325 44.104Z" fill="#9AD2F2"/>
<path d="M98.36 68.6246C98.36 68.6246 95.6947 66.4228 94.6469 66.4145C93.599 66.4062 87.152 67.425 87.3056 68.2358C87.4105 68.7901 92.6844 68.0767 92.6844 68.0767C92.6844 68.0767 87.1355 69.0825 87.0763 69.8011C87.0168 70.5194 92.8543 69.5963 92.8543 69.5963C92.8543 69.5963 88.1561 71.0198 88.3986 71.5706C88.641 72.1215 94.0093 71.1296 94.0093 71.1296C94.0093 71.1296 89.6294 72.8484 89.6703 73.3207C89.7115 73.793 95.0688 72.3978 95.0688 72.3978C95.0688 72.3978 99.2931 75.1056 100.922 73.0869C102.399 71.2563 98.36 68.6246 98.36 68.6246Z" fill="#FFBF9D"/>
<path d="M116.047 52.4312L101.24 72.3814C100.397 73.5171 98.771 73.7705 97.6085 72.947C96.5267 72.1806 96.2276 70.7522 96.87 69.6424L109.262 48.1789C110.357 46.2816 112.82 45.6112 114.762 46.6812C116.703 47.7515 117.39 50.1566 116.294 52.0539C116.219 52.1844 116.134 52.3123 116.047 52.4312Z" fill="#FFBF9D"/>
<path d="M97.5583 67.4081L102.502 71.2719L103.954 69.1435L98.8182 65.6788L97.5583 67.4081Z" fill="#602B1D"/>
<path d="M101.92 68.1659C101.92 68.9723 101.229 69.6262 100.377 69.6262C99.525 69.6262 98.834 68.9723 98.834 68.1659C98.834 67.359 99.525 66.7051 100.377 66.7051C101.229 66.7051 101.92 67.359 101.92 68.1659Z" fill="white"/>
<path d="M86.7225 16.6498L87.3164 24.9519C87.3164 24.9519 82.467 27.3119 79.2554 25.474L79.3675 19.1733L86.7225 16.6498Z" fill="#FFBF9D"/>
<path d="M79.2947 23.2767C83.5574 22.9233 85.0559 20.6502 85.0559 20.6502L79.3344 21.0441L79.2947 23.2767Z" fill="#0F2937"/>
<path d="M88.2424 25.0341L82.1753 23.9538L78.1476 25.1889C78.9236 29.1361 86.8703 29.5452 88.2424 25.0341Z" fill="#FFBF9D"/>
<path d="M78.1216 2.81469C86.0565 1.85302 90.222 5.58206 89.5505 12.8231C89.0158 18.5875 85.5898 22.174 80.0114 22.1916C74.8727 22.208 74.0385 18.1106 73.9693 13.8129C73.8704 7.68528 73.4099 3.38559 78.1216 2.81469Z" fill="#FFBF9D"/>
<path d="M74.168 10.8541C74.168 10.8541 76.1542 10.5244 77.3794 10.7379C76.7103 9.83388 74.939 10.2713 74.168 10.8541Z" fill="#0F2937"/>
<path d="M83.7855 10.8541C83.7855 10.8541 81.7992 10.5244 80.5738 10.7379C81.2429 9.83388 83.0145 10.2713 83.7855 10.8541Z" fill="#0F2937"/>
<path d="M76.7573 13.7118C76.7573 14.096 76.4984 14.4077 76.1789 14.4077C75.8598 14.4077 75.6008 14.096 75.6008 13.7118C75.6008 13.3272 75.8598 13.0157 76.1789 13.0157C76.4984 13.0157 76.7573 13.3272 76.7573 13.7118Z" fill="#0F2937"/>
<path d="M76.4325 13.4584C76.4325 13.5824 76.3513 13.6827 76.2511 13.6827C76.1507 13.6827 76.0695 13.5824 76.0695 13.4584C76.0695 13.3349 76.1507 13.2344 76.2511 13.2344C76.3513 13.2344 76.4325 13.3349 76.4325 13.4584Z" fill="white"/>
<path d="M82.3522 13.7118C82.3522 14.096 82.0933 14.4077 81.7741 14.4077C81.455 14.4077 81.1959 14.096 81.1959 13.7118C81.1959 13.3272 81.455 13.0157 81.7741 13.0157C82.0933 13.0157 82.3522 13.3272 82.3522 13.7118Z" fill="#0F2937"/>
<path d="M82.0276 13.4584C82.0276 13.5824 81.9462 13.6827 81.846 13.6827C81.7458 13.6827 81.6646 13.5824 81.6646 13.4584C81.6646 13.3349 81.7458 13.2344 81.846 13.2344C81.9462 13.2344 82.0276 13.3349 82.0276 13.4584Z" fill="white"/>
<path d="M78.3671 16.2751L78.3333 16.2722C77.9933 16.2102 77.7527 16.0718 77.6378 15.8722C77.5731 15.7594 77.5169 15.57 77.6185 15.3081C77.6765 15.1592 77.7932 14.9688 77.9171 14.7675C78.0305 14.5825 78.1477 14.3913 78.1952 14.2669C78.2306 14.1741 78.3363 14.127 78.4308 14.1617C78.5257 14.1961 78.5737 14.2991 78.5387 14.3918C78.4795 14.5468 78.3588 14.7436 78.2309 14.9518C78.1212 15.1307 78.0075 15.3159 77.9611 15.435C77.9191 15.5429 77.9178 15.6286 77.9573 15.6967C78.0165 15.7997 78.1739 15.879 78.4005 15.9203C78.5 15.9386 78.5654 16.0318 78.5469 16.1289C78.5307 16.2151 78.4535 16.2751 78.3671 16.2751Z" fill="#BF524D"/>
<path d="M76.9724 17.1762C78.242 17.2645 79.5719 17.2069 80.949 17.0356C80.2405 18.5816 77.4106 18.3104 76.9724 17.1762Z" fill="white"/>
<path d="M89.8958 14.3293C89.8958 14.3293 93.1674 6.37458 90.1166 5.74413C87.0656 5.11343 85.7552 5.85884 85.8139 7.92229C85.8724 9.98572 87.4846 13.6098 89.8958 14.3293Z" fill="#0F2937"/>
<path d="M88.2313 13.8961C87.7609 15.0321 88.0989 16.1275 88.9409 16.4604C89.7826 16.7936 90.8461 16.1429 91.3161 15.0069C91.7865 13.8712 91.4855 12.6806 90.6438 12.3477C89.8023 12.0148 88.7015 12.7604 88.2313 13.8961Z" fill="#FFBF9D"/>
<path d="M89.0428 15.3606C88.9676 15.3606 88.8972 15.315 88.8702 15.2417C88.8362 15.1487 88.8859 15.0462 88.9811 15.013C89.1682 14.9479 89.3754 14.7743 89.3874 14.5483C89.3921 14.4592 89.3579 14.3723 89.3184 14.2718C89.2794 14.1722 89.2352 14.0597 89.227 13.9305C89.2117 13.693 89.3064 13.4458 89.481 13.2691C89.7036 13.0431 89.996 12.933 90.2595 12.9752C90.7007 13.0455 90.9318 13.4653 90.9318 13.8441C90.9318 13.9427 90.8499 14.023 90.7487 14.023C90.6475 14.023 90.5653 13.9427 90.5653 13.8441C90.5653 13.6223 90.4377 13.3662 90.2011 13.3286C90.0272 13.3011 89.8475 13.4131 89.7449 13.5173C89.6404 13.6232 89.5837 13.7692 89.5925 13.9078C89.5972 13.9825 89.6282 14.0609 89.6604 14.1436C89.7081 14.2647 89.7621 14.4021 89.7534 14.5669C89.7324 14.9588 89.4121 15.2427 89.1045 15.3501L89.0428 15.3606Z" fill="#BF524D"/>
<path d="M73.6076 8.53026L91.2192 9.9281C91.2192 9.9281 93.9914 0.992633 83.7855 0.08881C75.712 -0.625852 74.0221 3.04606 73.6076 8.53026Z" fill="#714226"/>
<path d="M91.4945 8.50314C89.6769 8.50851 87.8589 8.4697 86.0435 8.3833C82.6248 8.22025 79.214 7.89538 75.8277 7.40796C75.1361 7.30838 74.4456 7.19952 73.7557 7.08651C73.7453 7.16584 73.7358 7.24687 73.7258 7.32741C75.8976 7.68279 78.0799 7.973 80.27 8.19536C83.6653 8.54 87.0779 8.72403 90.4912 8.74576C90.8152 8.74795 91.139 8.74624 91.463 8.74527C91.474 8.66741 91.4848 8.58686 91.4945 8.50314Z" fill="white"/>
<path d="M74.4908 5.19422C74.6994 5.29771 74.8873 5.43512 75.0454 5.60354C75.1913 5.75877 75.3015 5.94622 75.4629 6.08754C75.8119 6.39313 76.2586 6.32113 76.6356 6.10463C77.0236 5.88203 77.3799 5.42341 77.8673 5.43C78.2348 5.43513 78.4919 5.76048 78.725 5.99601C78.9561 6.23008 79.2212 6.45635 79.5702 6.47319C79.939 6.49101 80.2548 6.26109 80.5516 6.07974C80.8641 5.88911 81.1957 5.74852 81.5357 5.96355C81.8283 6.14832 82.0214 6.45098 82.2907 6.66381C82.5605 6.87714 82.8828 6.96818 83.2219 6.86591C83.5749 6.75901 83.8572 6.51346 84.1885 6.36286C84.5458 6.20055 84.8491 6.28671 85.1176 6.55398C85.3515 6.78634 85.5419 7.0829 85.8444 7.23911C86.1545 7.39898 86.4848 7.33796 86.7828 7.18321C87.0839 7.02725 87.3579 6.76462 87.6987 6.69384C88.1032 6.60987 88.3291 6.98575 88.5861 7.21592C88.8865 7.48489 89.2432 7.53054 89.608 7.35334C89.9855 7.16979 90.2756 6.84468 90.7025 6.76242C90.9856 6.70824 91.2856 6.749 91.55 6.86347C91.5452 6.7756 91.5392 6.68651 91.5317 6.59669C91.1777 6.47124 90.7817 6.45781 90.4247 6.58741C90.0182 6.73533 89.7162 7.12024 89.2897 7.21275C88.8547 7.3072 88.6206 6.85298 88.3318 6.62794C88.0395 6.40045 87.7012 6.40021 87.3729 6.55276C87.0464 6.70457 86.7721 6.97574 86.4186 7.07045C86.0455 7.17052 85.7815 6.92034 85.5541 6.66723C85.3305 6.41876 85.1002 6.12952 84.7524 6.05044C84.3891 5.9677 84.0531 6.1432 83.7528 6.32284C83.4487 6.50492 83.0905 6.76315 82.7157 6.63306C82.3842 6.5181 82.1673 6.19177 81.9237 5.96258C81.6699 5.7246 81.3633 5.55497 81.0011 5.61989C80.63 5.68652 80.3407 5.9494 80.0149 6.11537C79.8491 6.20007 79.6644 6.2584 79.4765 6.21739C79.3037 6.18005 79.1602 6.0707 79.0338 5.95452C78.7775 5.71874 78.5596 5.41804 78.2313 5.27086C77.8199 5.0861 77.4074 5.25499 77.0651 5.49834C76.7166 5.74584 76.2089 6.25425 75.7392 5.98796C75.5441 5.87739 75.4257 5.66871 75.285 5.50371C75.1433 5.33749 74.9725 5.1947 74.7853 5.07901C74.6087 4.96966 74.4196 4.89205 74.2257 4.83786C74.2025 4.91328 74.1812 4.99041 74.1595 5.0668C74.2724 5.09853 74.3831 5.14077 74.4908 5.19422Z" fill="white"/>
<path d="M87.657 23.8759C87.657 23.8759 86.6416 25.6167 84.6539 26.4241C84.0683 26.6618 83.6211 27.1419 83.4325 27.7333L83.0025 29.0801C87.4594 29.2493 88.8657 25.1266 88.8657 25.1266L87.657 23.8759Z" fill="#D36F1C"/>
<path d="M81.2416 26.5823C79.3228 25.9113 78.3437 24.0751 78.3437 24.0751L77.6529 25.3404C77.6529 25.3404 78.4606 28.9003 82.9972 29.0814L82.9979 29.0802L82.5827 27.8901C82.3681 27.2745 81.8687 26.8015 81.2416 26.5823Z" fill="#D36F1C"/>
<path d="M85.2647 27.7747C85.2647 28.0651 85.0239 28.3007 84.7266 28.3007C84.4293 28.3007 84.1882 28.0651 84.1882 27.7747C84.1882 27.4842 84.4293 27.2489 84.7266 27.2489C85.0239 27.2489 85.2647 27.4842 85.2647 27.7747Z" fill="#C1EBFB"/>
<path d="M48.3212 84.4672L56.6551 167.363C56.8387 169.19 55.4708 170.818 53.5998 170.997C51.8114 171.169 50.209 169.945 49.9102 168.241L35.7186 86.1088C35.134 82.7247 37.4682 79.5182 40.932 78.9471C44.396 78.3759 47.6781 80.6559 48.2627 84.0402C48.2865 84.1774 48.3067 84.3305 48.3212 84.4672Z" fill="#F7958F"/>
<path d="M33.2119 85.4055L28.9382 167.87C28.8387 169.785 27.1688 171.259 25.2083 171.162C23.3256 171.069 21.8595 169.55 21.8338 167.734L20.8522 85.1704C20.8127 81.8341 23.5489 79.098 26.964 79.0592C30.379 79.0204 33.1797 81.6935 33.2192 85.0301C33.2207 85.1502 33.2174 85.2873 33.2119 85.4055Z" fill="#F7958F"/>
<path d="M48.8616 76.8652L57.7683 158.104H46.1438L34.5768 85.9951L33.6474 74.7304L48.8616 76.8652Z" fill="#0F2937"/>
<path d="M18.8289 76.5134L20.0034 158.104H31.4393L35.5057 73.4214L18.8289 76.5134Z" fill="#0F2937"/>
<path d="M34.8419 87.3379H34.8392C34.7887 87.3366 34.7487 87.2954 34.7505 87.2461L35.0923 76.0493C35.094 75.9997 35.1317 75.9607 35.1867 75.9626C35.2369 75.9641 35.2769 76.0053 35.2754 76.0546L34.9334 87.2512C34.9319 87.2998 34.8911 87.3379 34.8419 87.3379Z" fill="#0F2937"/>
<path d="M34.8659 86.5438C34.8154 86.5438 34.7744 86.5036 34.7744 86.4543C34.7744 86.405 34.8154 86.365 34.8659 86.365C35.6726 86.365 36.5558 85.8632 36.576 85.0526L36.9463 76.4344C36.9483 76.3848 36.98 76.347 37.0417 76.3487C37.0924 76.3509 37.1314 76.3926 37.1294 76.442L36.7589 85.0587C36.7364 85.9752 35.7585 86.5438 34.8659 86.5438Z" fill="#0F2937"/>
<path d="M19.7611 82.3308C19.7154 82.3308 19.6757 82.2974 19.6702 82.2519C19.6642 82.2027 19.7002 82.1582 19.7507 82.1524C23.0026 81.7797 24.6193 79.9623 24.8384 76.4327C24.8414 76.3836 24.8773 76.3499 24.9358 76.3487C24.986 76.3519 25.0245 76.3944 25.0215 76.4437C24.7956 80.0751 23.1277 81.9457 19.7719 82.3303L19.7611 82.3308Z" fill="#0F2937"/>
<path d="M49.1134 83.1597L49.0574 83.1411C47.3113 81.8187 45.9242 79.4201 45.4378 76.8817C45.4283 76.8329 45.4613 76.7863 45.511 76.7773C45.5632 76.769 45.6084 76.8004 45.6177 76.8488C46.0891 79.3081 47.4835 81.7226 49.1699 82.9996C49.2098 83.0298 49.2171 83.0862 49.1861 83.1253C49.1681 83.1478 49.1409 83.1597 49.1134 83.1597Z" fill="#0F2937"/>
<path d="M31.2957 67.4984C29.6855 67.4984 28.1647 66.5494 27.5421 64.9959L17.3583 39.5929C16.5466 37.5683 17.5686 35.284 19.6412 34.4909C21.7129 33.6984 24.0519 34.6965 24.8636 36.7213L35.0475 62.1243C35.8592 64.1492 34.8371 66.4333 32.7645 67.2263C32.282 67.411 31.7846 67.4984 31.2957 67.4984Z" fill="#F7958F"/>
<path d="M17.4225 94.101C18.3619 94.1937 19.0816 94.0695 20.006 92.8547L20.7028 87.2485L21.473 92.6989C29.9993 98.5535 43.6077 98.7126 53.2825 93.9764L48.0776 46.5174L45.3693 31.9776L36.4301 29.2415L24.268 31.0477L19.9183 48.4773L17.4225 94.101Z" fill="white"/>
<path d="M45.3683 31.9784C48.5191 32.9749 51.0384 35.312 52.2204 38.3342L59.1292 58.1702C56.4324 60.5961 51.3113 61.8138 47.6511 62.0732L45.3683 31.9784Z" fill="white"/>
<path d="M5.31221 59.0385C4.35373 59.0385 3.39195 58.7065 2.62225 58.0319C0.965496 56.5796 0.827311 54.0905 2.31355 52.4718L17.873 35.5278C19.3589 33.9094 21.9068 33.7739 23.5645 35.2264C25.2211 36.6784 25.3596 39.1678 23.873 40.7865L8.31359 57.7304C7.51741 58.5972 6.41704 59.0385 5.31221 59.0385Z" fill="#F7958F"/>
<path d="M19.8868 73.6501C19.8868 73.6501 22.5521 71.4488 23.5997 71.4405C24.6475 71.432 31.0946 72.451 30.9412 73.2618C30.8362 73.8159 25.5622 73.1027 25.5622 73.1027C25.5622 73.1027 31.1111 74.1083 31.1705 74.8268C31.2297 75.5454 25.3925 74.6223 25.3925 74.6223C25.3925 74.6223 30.0907 76.0458 29.8481 76.5967C29.6055 77.1473 24.2375 76.1554 24.2375 76.1554C24.2375 76.1554 28.6172 77.8742 28.5762 78.3467C28.5352 78.8188 23.1777 77.4236 23.1777 77.4236C23.1777 77.4236 18.9534 80.1317 17.3245 78.1126C15.8478 76.282 19.8868 73.6501 19.8868 73.6501Z" fill="#FFBF9D"/>
<path d="M8.95235 53.345L21.3446 74.8086C22.0501 76.0304 21.6082 77.5798 20.3575 78.2689C19.1937 78.9101 17.74 78.5808 16.9751 77.5476L2.16827 57.5974C0.859639 55.8341 1.2619 53.3682 3.06671 52.0895C4.87169 50.811 7.39574 51.204 8.70446 52.9674C8.79473 53.089 8.87828 53.2174 8.95235 53.345Z" fill="#FFBF9D"/>
<path d="M22.6818 47.9746L30.1906 37.147L24.2692 31.0473H24.269C21.8985 31.469 19.7214 32.602 18.0412 34.2894C18.0412 34.2894 2.9102 50.3956 0.783951 52.6804C-1.34232 54.9657 1.53034 58.7035 1.53034 58.7035L10.6578 71.8684L17.752 67.4291L11.5375 55.1991L22.6818 47.9746Z" fill="white"/>
<path d="M48.9686 54.9657C48.9206 54.9657 48.8804 54.9291 48.8771 54.8817C48.8699 54.7651 48.1346 43.1608 47.982 37.1492C47.9807 37.0999 48.0204 37.0589 48.0714 37.0574C48.1126 37.0545 48.1638 37.0955 48.1651 37.1448C48.3175 43.1533 49.0528 54.7541 49.0603 54.8708C49.0633 54.9201 49.0248 54.9625 48.9743 54.9657H48.9686Z" fill="#9AD2F2"/>
<path d="M48.4269 45.5599C48.4014 45.5599 48.3761 45.5499 48.3584 45.5297C48.3244 45.4928 48.3282 45.4364 48.3664 45.4037C49.8334 44.1379 49.8844 41.6674 49.8847 41.6427C49.8854 41.5932 49.9291 41.5573 49.9774 41.5544C50.0281 41.5551 50.0685 41.5956 50.0678 41.6449C50.0663 41.7496 50.0148 44.2202 48.4873 45.5377L48.4269 45.5599Z" fill="#9AD2F2"/>
<path d="M19.8899 49.2701L19.8461 49.2594C19.8017 49.236 19.7852 49.1815 19.8092 49.1381C23.8598 41.8167 22.6918 34.91 22.6796 34.8409C22.6711 34.7924 22.704 34.746 22.7543 34.7375C22.8025 34.7292 22.8512 34.7616 22.8602 34.8104C22.8727 34.8798 24.0527 41.845 19.9706 49.2233C19.9538 49.2531 19.9223 49.2701 19.8899 49.2701Z" fill="#9AD2F2"/>
<path d="M46.5551 47.6235H39.6528V46.6565H46.5551V47.6235Z" fill="#F2AF36"/>
<path d="M36.1105 33.1836C35.9271 33.9007 35.3727 34.4389 35.0517 35.0931C34.6819 35.8463 34.6672 36.745 34.5887 37.5627C34.4151 39.3679 34.3234 41.1804 34.3134 42.9932C34.3079 44.0207 34.3292 45.0481 34.3756 46.0744C34.3826 46.2299 34.631 46.2306 34.6237 46.0744C34.5423 44.2731 34.5398 42.4686 34.6195 40.6676C34.6589 39.7718 34.7184 38.8773 34.7978 37.9839C34.8371 37.5426 34.8815 37.1016 34.9305 36.6608C34.9792 36.2222 35.0304 35.7758 35.1996 35.3625C35.5051 34.6152 36.1465 34.043 36.3498 33.2481C36.3886 33.0965 36.1492 33.0321 36.1105 33.1836Z" fill="#F2AF36"/>
<path d="M37.732 39.5685C37.732 40.1272 37.2686 40.58 36.6969 40.58C36.1251 40.58 35.6616 40.1272 35.6616 39.5685C35.6616 39.01 36.1251 38.5573 36.6969 38.5573C37.2686 38.5573 37.732 39.01 37.732 39.5685Z" fill="#F2AF36"/>
<path d="M37.732 43.0518C37.732 43.6102 37.2686 44.063 36.6969 44.063C36.1251 44.063 35.6616 43.6102 35.6616 43.0518C35.6616 42.4931 36.1251 42.0403 36.6969 42.0403C37.2686 42.0403 37.732 42.4931 37.732 43.0518Z" fill="#F2AF36"/>
<path d="M31.9882 64.8616L21.0786 60.2392L28.3076 43.9548L39.2173 48.5774L31.9882 64.8616Z" fill="#F2AF36"/>
<path d="M30.6456 63.0757L23.3306 59.9766C23.5362 59.5129 23.3184 58.9744 22.8442 58.7736L28.5667 45.8828C29.0412 46.0837 29.5923 45.8711 29.7979 45.4073L37.1132 48.5069C36.9073 48.9701 37.1252 49.5088 37.5994 49.7097L31.8768 62.6007C31.4024 62.3998 30.8512 62.6124 30.6456 63.0757Z" fill="#D36F1C"/>
<path d="M34.9478 51.4446L29.0823 48.9594L29.7691 47.4122L35.6346 49.8974L34.9478 51.4446Z" fill="#F2AF36"/>
<path d="M34.4614 52.5403L28.5959 50.0551L28.8375 49.5108L34.703 51.9962L34.4614 52.5403Z" fill="#F2AF36"/>
<path d="M54.7008 67.5746L33.4738 61.5122C32.0949 61.1185 31.3037 59.707 31.7069 58.3599C32.0779 57.1197 33.3316 56.3667 34.6043 56.562L56.4559 59.8888C58.6597 60.2244 60.168 62.2417 59.8245 64.3947C59.4812 66.548 57.416 68.0215 55.2119 67.6859C55.0448 67.6603 54.8594 67.6185 54.7008 67.5746Z" fill="#FFBF9D"/>
<path d="M36.7185 58.9881C36.7185 58.9881 38.964 52.0529 38.5176 51.4459C38.0709 50.8384 35.5637 55.1144 35.5637 55.1144C35.5637 55.1144 26.8249 47.5089 26.2892 47.9382C25.7533 48.3676 29.4344 51.872 29.4344 51.872C29.4344 51.872 24.7967 48.5235 24.3467 49.0627C23.939 49.5513 28.5373 53.3116 28.5373 53.3116C28.5373 53.3116 23.3097 50.3402 23.2502 50.9641C23.191 51.5879 27.7126 54.6492 27.7126 54.6492C27.7126 54.6492 23.223 52.7942 23.218 53.2203C23.2132 53.6465 27.3735 56.3719 27.3735 56.3719C29.1042 57.9745 30.96 60.0411 31.8804 60.6877C35.537 63.2568 36.7185 58.9881 36.7185 58.9881Z" fill="#FFBF9D"/>
<path d="M59.1291 58.1703C59.1291 58.1703 64.0939 64.7496 60.107 67.4914C56.1203 70.2334 42.8844 65.0611 42.8844 65.0611L44.8087 57.4551L59.1291 58.1703Z" fill="white"/>
<path d="M55.578 58.2954L55.5715 58.2952L44.8792 57.5497L44.76 58.0198C44.7478 58.0679 44.6975 58.0982 44.6493 58.0853C44.6004 58.0735 44.5701 58.025 44.5824 57.9769L44.72 57.4336C44.7305 57.3911 44.772 57.3596 44.8152 57.366L55.5848 58.117C55.6352 58.1202 55.6732 58.1631 55.6695 58.2124C55.6662 58.2595 55.626 58.2954 55.578 58.2954Z" fill="#9AD2F2"/>
<path d="M49.7031 67.3185L49.6859 67.317C46.4107 66.7068 42.882 65.1579 42.8465 65.1425C42.8066 65.125 42.7848 65.0815 42.7956 65.0395L43.0084 64.1982C43.0204 64.1501 43.0704 64.1196 43.1191 64.1328C43.1683 64.1445 43.1983 64.1931 43.1861 64.2411L42.992 65.0097C43.5024 65.2289 46.7203 66.5823 49.7201 67.141C49.7698 67.1503 49.8025 67.1974 49.7931 67.2457C49.7846 67.2887 49.7463 67.3185 49.7031 67.3185Z" fill="#9AD2F2"/>
<path d="M31.4923 21.8159L30.8984 30.118C30.8984 30.118 35.7476 32.478 38.9595 30.6401L38.847 24.3395L31.4923 21.8159Z" fill="#FFBF9D"/>
<path d="M38.9203 28.4426C34.6575 28.0894 33.159 25.8161 33.159 25.8161L38.8805 26.2103L38.9203 28.4426Z" fill="#0F2937"/>
<path d="M40.0933 7.98083C32.1586 7.01892 27.9926 10.748 28.6642 17.989C29.1988 23.7537 32.6248 27.3402 38.2035 27.3577C43.3422 27.3741 44.1761 23.2767 44.2456 18.9788C44.3445 12.8514 44.8047 8.55173 40.0933 7.98083Z" fill="#FFBF9D"/>
<path d="M44.0469 16.0203C44.0469 16.0203 42.0607 15.6905 40.8355 15.9041C41.5046 15 43.2759 15.4374 44.0469 16.0203Z" fill="#0F2937"/>
<path d="M34.4296 16.0203C34.4296 16.0203 36.4156 15.6905 37.641 15.9041C36.972 15 35.2004 15.4374 34.4296 16.0203Z" fill="#0F2937"/>
<path d="M41.4574 18.8777C41.4574 19.2622 41.7165 19.5739 42.0358 19.5739C42.3551 19.5739 42.6139 19.2622 42.6139 18.8777C42.6139 18.4933 42.3551 18.1819 42.0358 18.1819C41.7165 18.1819 41.4574 18.4933 41.4574 18.8777Z" fill="#0F2937"/>
<path d="M41.7822 18.6246C41.7822 18.7486 41.8634 18.8489 41.9638 18.8489C42.064 18.8489 42.1452 18.7486 42.1452 18.6246C42.1452 18.5008 42.064 18.4005 41.9638 18.4005C41.8634 18.4005 41.7822 18.5008 41.7822 18.6246Z" fill="white"/>
<path d="M35.8624 18.8777C35.8624 19.2622 36.1215 19.5739 36.4406 19.5739C36.7601 19.5739 37.0189 19.2622 37.0189 18.8777C37.0189 18.4933 36.7601 18.1819 36.4406 18.1819C36.1215 18.1819 35.8624 18.4933 35.8624 18.8777Z" fill="#0F2937"/>
<path d="M36.1873 18.6246C36.1873 18.7486 36.2685 18.8489 36.3686 18.8489C36.4691 18.8489 36.5503 18.7486 36.5503 18.6246C36.5503 18.5008 36.4691 18.4005 36.3686 18.4005C36.2685 18.4005 36.1873 18.5008 36.1873 18.6246Z" fill="white"/>
<path d="M39.8476 21.4413C39.7612 21.4413 39.684 21.381 39.6677 21.2951C39.6492 21.1977 39.7149 21.1045 39.8144 21.0864C40.041 21.0451 40.1984 20.9658 40.2576 20.8628C40.2968 20.7947 40.2956 20.7091 40.2536 20.6009C40.2074 20.4818 40.0932 20.2961 39.983 20.1164C39.8556 19.909 39.7354 19.7127 39.6765 19.558C39.641 19.4655 39.689 19.3622 39.7837 19.3278C39.8788 19.2934 39.9843 19.3405 40.0195 19.4328C40.067 19.557 40.1841 19.7479 40.2971 19.9324C40.421 20.1345 40.5382 20.3251 40.5961 20.4742C40.6978 20.7361 40.6418 20.9255 40.5769 21.0383C40.4622 21.238 40.2216 21.3764 39.8813 21.4381L39.8476 21.4413Z" fill="#BF524D"/>
<path d="M41.2425 22.3419C41.2075 23.2108 40.8203 23.8429 40.3006 24.2188C39.3462 24.9096 37.9446 24.7436 37.4375 23.616C37.3175 23.3572 37.2476 23.0472 37.2401 22.686C37.2376 22.5347 37.2451 22.3736 37.2651 22.2027C38.5268 22.3589 39.7485 22.42 40.9202 22.3589C41.0276 22.3565 41.1351 22.3492 41.2425 22.3419Z" fill="#0F2937"/>
<path d="M40.9202 22.359C40.7678 22.8105 39.9483 23.1571 38.959 23.1571C38.2245 23.1571 37.5849 22.9667 37.2401 22.686C37.2376 22.5347 37.2451 22.3736 37.2651 22.2028C38.5268 22.359 39.7485 22.42 40.9202 22.359Z" fill="white"/>
<path d="M40.3006 24.2188C39.3463 24.9096 37.9447 24.7436 37.4375 23.616C37.7123 23.5378 38.0121 23.4939 38.3219 23.4939C39.1139 23.4939 39.826 23.7746 40.3006 24.2188Z" fill="#F25173"/>
<path d="M28.3191 19.4955C28.3191 19.4955 25.0475 11.5407 28.0985 10.9103C31.1493 10.2798 32.4597 11.0247 32.401 13.0884C32.3423 15.1519 30.7301 18.7759 28.3191 19.4955Z" fill="#0F2937"/>
<path d="M29.9835 19.0623C30.4537 20.198 30.1157 21.2936 29.274 21.6266C28.4325 21.9597 27.3687 21.3088 26.8985 20.1731C26.4283 19.0374 26.7291 17.8468 27.5708 17.5138C28.4126 17.1807 29.5133 17.9266 29.9835 19.0623Z" fill="#FFBF9D"/>
<path d="M29.1721 20.5267L29.1103 20.5162C28.8025 20.4088 28.4825 20.1247 28.4615 19.733C28.4525 19.568 28.5065 19.4306 28.5545 19.3095C28.5867 19.2265 28.6177 19.1482 28.6224 19.0737C28.6314 18.9351 28.5742 18.7891 28.47 18.6835C28.3671 18.5792 28.1859 18.467 28.0136 18.4948C27.777 18.5326 27.649 18.7884 27.649 19.0103C27.649 19.1091 27.5673 19.1892 27.4659 19.1892C27.3647 19.1892 27.2828 19.1091 27.2828 19.0103C27.2828 18.6315 27.5136 18.2116 27.9551 18.1414C28.2189 18.0994 28.511 18.2092 28.7338 18.435C28.9082 18.6117 29.0032 18.8589 28.9879 19.0964C28.9797 19.2255 28.9352 19.3383 28.8965 19.4377C28.8565 19.5382 28.8225 19.6254 28.8273 19.7144C28.8395 19.9405 29.0466 20.114 29.234 20.1792C29.329 20.2126 29.3789 20.3149 29.3447 20.4079C29.3177 20.4811 29.2473 20.5267 29.1721 20.5267Z" fill="#BF524D"/>
<path d="M25.7465 7.60396L26.996 15.0942C32.787 14.3981 38.5517 14.1084 44.2898 14.2229L44.713 5.52661C37.9646 5.79119 31.575 6.41579 25.7465 7.60396Z" fill="#1D4763"/>
<path d="M40.0671 30.3551L36.0397 29.12L29.9726 30.2003C30.5082 31.9616 32.047 32.9696 33.7691 33.3131L34.9291 35.5222L36.2018 33.3687C38.0856 33.0851 39.7348 32.046 40.0671 30.3551Z" fill="#FFBF9D"/>
</svg>
